<?xml version="1.0" encoding="UTF-8" standalone="no"?>
<svg
   xmlns:dc="http://purl.org/dc/elements/1.1/"
   xmlns:cc="http://creativecommons.org/ns#"
   xmlns:rdf="http://www.w3.org/1999/02/22-rdf-syntax-ns#"
   xmlns:svg="http://www.w3.org/2000/svg"
   xmlns="http://www.w3.org/2000/svg"
   xmlns:sodipodi="http://sodipodi.sourceforge.net/DTD/sodipodi-0.dtd"
   xmlns:inkscape="http://www.inkscape.org/namespaces/inkscape"
   inkscape:version="1.0 (1.0+r73+1)"
   sodipodi:docname="del-icon.svg"
   viewBox="0 0 96 131.42118"
   height="131.42119"
   width="96"
   id="svg44"
   version="1.1">
  <g
     transform="translate(154.86316,-4.0371773)"
     id="g52"
     inkscape:label="Image"
     inkscape:groupmode="layer">
    <path
       id="path56"
       d="m -138.96396,135.23489 c -1.42665,-0.43314 -3.0455,-1.839 -3.79563,-3.29625 -0.66473,-1.29134 -0.77176,-3.07502 -2.86476,-47.741463 -1.19584,-25.52 -2.17977,-46.796 -2.18652,-47.28 l -0.0123,-0.88 h 40.96 40.960003 l -0.01229,0.88 c -0.0068,0.484 -0.988886,21.768666 -2.182515,47.299258 l -2.170234,46.419255 -0.777485,1.40654 c -0.427616,0.77359 -1.401836,1.84492 -2.164931,2.38074 l -1.387449,0.97421 -31.732549,0.0556 c -17.4529,0.0306 -32.13791,-0.0675 -32.63336,-0.21789 z m 17.49765,-20.82094 0.84315,-0.66322 V 85.919407 58.088086 l -0.78545,-0.785453 c -0.72358,-0.723581 -1.02467,-0.785456 -3.82216,-0.785456 -2.74874,0 -3.12184,0.07323 -3.93454,0.772294 l -0.89785,0.772292 v 27.681926 27.681931 l 0.77578,0.82578 c 0.73046,0.77753 0.95698,0.82578 3.87685,0.82578 2.65272,0 3.22296,-0.0959 3.94422,-0.66323 z m 18.6177,-0.12223 0.78545,-0.78545 V 85.858451 58.210633 l -0.78472,-0.84673 c -0.74874,-0.8079 -0.93285,-0.846726 -4.01528,-0.846726 -3.08243,0 -3.26654,0.03883 -4.01528,0.846726 l -0.78472,0.84673 v 27.647818 27.647819 l 0.78546,0.78545 c 0.73015,0.73016 1.01279,0.78546 4.01454,0.78546 3.00175,0 3.28439,-0.0553 4.01455,-0.78546 z m 18.409674,-0.0403 0.775779,-0.82578 V 85.743689 58.061763 L -84.561,57.289471 c -0.812707,-0.699062 -1.185799,-0.772294 -3.934547,-0.772294 -2.797485,0 -3.098576,0.06188 -3.822154,0.785456 l -0.785456,0.785453 v 27.831321 27.831323 l 0.843155,0.66322 c 0.721255,0.56734 1.291498,0.66323 3.944218,0.66323 2.919872,0 3.146393,-0.0483 3.876848,-0.82578 z M -154.86316,21.144429 c 0,-6.209487 0.062,-7.014365 0.6259,-8.119612 1.14603,-2.246391 1.30814,-2.26764 17.30058,-2.26764 h 14.07352 V 7.9000346 c 0,-2.1707361 0.12081,-2.9779506 0.50286,-3.3600001 0.44283,-0.4428339 2.29264,-0.5028572 15.49714,-0.5028572 13.204505,0 15.054313,0.060023 15.497145,0.5028572 0.382052,0.3820495 0.502858,1.189264 0.502858,3.3600001 v 2.8571424 h 14.073523 c 15.992442,0 16.154554,0.02125 17.300576,2.26764 0.563856,1.105247 0.625901,1.910125 0.625901,8.119612 v 6.892748 h -48.000003 -48 z"
       style="stroke-width:0.32" />
  </g>
</svg>
