<?xml version="1.0" encoding="UTF-8" standalone="no"?>
<svg
   xmlns:dc="http://purl.org/dc/elements/1.1/"
   xmlns:cc="http://creativecommons.org/ns#"
   xmlns:rdf="http://www.w3.org/1999/02/22-rdf-syntax-ns#"
   xmlns:svg="http://www.w3.org/2000/svg"
   xmlns="http://www.w3.org/2000/svg"
   xmlns:sodipodi="http://sodipodi.sourceforge.net/DTD/sodipodi-0.dtd"
   xmlns:inkscape="http://www.inkscape.org/namespaces/inkscape"
   inkscape:version="1.0 (1.0+r73+1)"
   sodipodi:docname="soc-icon-1.svg"
   viewBox="0 0 798.00476 798.50653"
   height="798.50653"
   width="798.00476"
   id="svg171"
   version="1.1">
  <g
     transform="translate(1040.5684,-52.256164)"
     id="g179"
     inkscape:label="Image"
     inkscape:groupmode="layer">
    <path
       id="path183"
       d="m -836.56839,850.53828 c -1.65,-0.19958 -7.275,-0.85518 -12.5,-1.45687 -21.82289,-2.51306 -52.45593,-12.23809 -73,-23.17521 -62.87556,-33.47329 -104.20171,-90.76729 -116.65711,-161.73167 -1.7499,-9.97015 -1.8429,-20.71854 -1.8429,-213 v -202.5 l 2.2384,-12 c 7.0667,-37.88487 20.5056,-68.41624 43.55678,-98.95576 7.8067,-10.34276 28.90631,-31.44237 39.24907,-39.249073 25.8598,-19.518961 52.1526,-32.297835 81.95576,-39.83228 27.06407,-6.841984 17.1756,-6.58204 237.5,-6.24331 187.855,0.288811 199.00946,0.40377 208,2.143669 40.08718,7.757892 71.58236,21.755867 101.5,45.111484 37.44573,29.23254 65.78586,72.85416 77.54723,119.36206 6.86476,27.14528 6.45277,12.29053 6.45277,232.66321 0,187.90945 -0.10165,199.61305 -1.82393,210 -3.95222,23.8355 -9.76542,42.47393 -19.74363,63.30252 -10.90716,22.76768 -22.84892,39.94924 -40.36716,58.07943 -33.70088,34.87812 -73.55958,55.89256 -124.06528,65.41014 -10.87246,2.04887 -13.28407,2.075 -208,2.25372 -108.35,0.0995 -198.35,0.0175 -200,-0.18206 z m 232.5,-180.19779 c 23.29887,-4.37333 37.76153,-9.09838 58.80252,-19.21119 57.66997,-27.71759 101.22898,-79.9697 117.7358,-141.23242 5.86971,-21.78456 6.96355,-31.18691 6.88975,-59.22235 -0.0632,-24.0023 -0.2758,-27.06202 -2.76724,-39.82215 -18.48099,-94.65228 -91.91644,-164.79633 -187.66083,-179.24982 -15.83728,-2.39078 -45.3649,-2.39123 -61.5,-9.3e-4 -69.08934,10.23509 -127.14564,49.60578 -161.76417,109.69983 -19.67277,34.14983 -28.98651,69.38956 -29.03907,109.87307 -0.0342,26.34194 3.00781,45.79979 10.96485,70.13523 18.18452,55.61461 59.78549,103.31647 112.83839,129.3864 21.37953,10.5058 48.11028,18.45024 72.33787,21.49899 12.02664,1.5134 51.37407,0.35803 63.16213,-1.85466 z m -49.15838,-86.18151 c -49.84923,-4.63241 -92.49237,-35.88117 -111.44541,-81.66687 -18.47201,-44.62364 -11.23413,-96.56668 18.62843,-133.68799 62.22837,-77.35434 183.26607,-63.14547 224.82685,26.3929 8.70124,18.74591 12.29749,35.20874 12.32569,56.42417 0.0478,35.94086 -13.11501,67.85075 -38.60772,93.59486 -27.74171,28.01527 -67.14416,42.52844 -105.72784,38.94293 z m 291.45755,-356.99514 c 7.8686,-2.43036 17.31313,-9.12925 22.16239,-15.71951 16.34919,-22.21895 8.10669,-54.70014 -16.83818,-66.35418 -26.6023,-12.42836 -57.34749,3.68746 -62.58217,32.80393 -1.86013,10.34645 0.84045,22.88775 6.79089,31.53642 6.09613,8.86042 16.68235,16.48266 25.91382,18.65836 6.83812,1.61162 17.66064,1.2039 24.55325,-0.92502 z"
    />
  </g>
</svg>
