<?xml version="1.0" encoding="UTF-8" standalone="no"?>
<svg
   xmlns:dc="http://purl.org/dc/elements/1.1/"
   xmlns:cc="http://creativecommons.org/ns#"
   xmlns:rdf="http://www.w3.org/1999/02/22-rdf-syntax-ns#"
   xmlns:svg="http://www.w3.org/2000/svg"
   xmlns="http://www.w3.org/2000/svg"
   xmlns:sodipodi="http://sodipodi.sourceforge.net/DTD/sodipodi-0.dtd"
   xmlns:inkscape="http://www.inkscape.org/namespaces/inkscape"
   inkscape:version="1.0 (1.0+r73+1)"
   sodipodi:docname="soc-icon-3.svg"
   viewBox="0 0 57.321785 39.164207"
   height="39.164207"
   width="57.321785"
   id="svg135"
   version="1.1">
  <g
     transform="translate(84.333667,-4.3906084)"
     id="g143"
     inkscape:label="Image"
     inkscape:groupmode="layer">
    <path
       id="path243"
       d="m -69.893586,43.382605 c -7.328432,-0.183747 -7.756994,-0.229168 -9.28,-0.98358 -3.099589,-1.535363 -4.412248,-5.078602 -5.016561,-13.54113 -0.389258,-5.450999 0.04828,-13.800007 0.890509,-16.992383 0.626873,-2.3761044 1.737019,-4.5852435 2.804538,-5.5809037 1.643702,-1.5330582 3.069585,-1.6679617 19.564769,-1.8510318 8.497164,-0.094305 18.175529,-0.028237 21.661554,0.1478699 7.648736,0.3863978 8.373024,0.6563428 10.052608,3.7466412 1.792506,3.2980594 2.202496,6.1847514 2.204279,15.5199994 0.0016,8.553996 -0.253069,10.998349 -1.490708,14.306243 -0.82616,2.208106 -2.522406,4.12896 -4.059241,4.596736 -2.316387,0.705053 -21.473891,1.029139 -37.331747,0.631539 z m 23.800288,-18.586228 1.397037,-0.865774 -8.689232,-5.175981 c -4.779076,-2.846789 -8.899742,-5.256761 -9.157034,-5.355494 -0.404571,-0.155248 -0.467804,1.245304 -0.467804,10.36139 0,5.797496 0.08203,10.622936 0.182294,10.723198 0.148479,0.148477 10.995424,-6.130557 16.734739,-9.687339 z"
       style="stroke-width:0.32" />
  </g>
</svg>
