<?xml version="1.0" encoding="UTF-8" standalone="no"?>
<svg
   xmlns:dc="http://purl.org/dc/elements/1.1/"
   xmlns:cc="http://creativecommons.org/ns#"
   xmlns:rdf="http://www.w3.org/1999/02/22-rdf-syntax-ns#"
   xmlns:svg="http://www.w3.org/2000/svg"
   xmlns="http://www.w3.org/2000/svg"
   xmlns:sodipodi="http://sodipodi.sourceforge.net/DTD/sodipodi-0.dtd"
   xmlns:inkscape="http://www.inkscape.org/namespaces/inkscape"
   inkscape:version="1.0 (1.0+r73+1)"
   sodipodi:docname="soc-icon-2.svg"
   viewBox="0 0 65.25132 38.697181"
   height="38.697182"
   width="65.25132"
   id="svg123"
   version="1.1">
  <g
     transform="translate(72.45233,-1.2355254)"
     id="g131"
     inkscape:label="Image"
     inkscape:groupmode="layer">
    <path
       id="path263"
       d="m -44.641012,39.457356 c -2.764552,-0.592052 -7.394467,-2.925293 -9.710307,-4.893504 -4.931011,-4.190819 -10.72508,-13.074158 -16.036605,-24.5869689 -2.084374,-4.5179115 -2.51631,-6.272322 -1.628154,-6.6131396 0.255714,-0.098127 2.918109,-0.2031463 5.916433,-0.233377 4.384141,-0.044203 5.593166,0.039191 6.175065,0.4259363 0.425148,0.2825642 1.284861,1.7896675 2.084517,3.6542246 2.373485,5.5342516 6.134626,11.6033816 7.912875,12.7685346 0.982266,0.643605 1.871115,0.366547 2.41103,-0.751531 0.498868,-1.033074 0.819195,-8.470988 0.481292,-11.1754731 C -47.2187,6.5807031 -47.467222,6.0234727 -48.319895,5.1708004 -48.90131,4.5893857 -49.689971,4.113683 -50.072476,4.113683 c -0.915733,0 -0.75355,-0.8545174 0.313184,-1.6501229 1.026438,-0.7655513 3.857036,-1.2256736 7.554603,-1.2280236 4.039677,-0.00257 6.190707,0.4392278 7.083677,1.4548995 0.702112,0.7985891 0.720119,1.0033417 0.724717,8.241091 0.0052,8.082556 0.160525,8.946138 1.640864,9.119374 1.910378,0.223561 6.087715,-5.90167 9.430746,-13.828301 0.590265,-1.399574 1.255565,-2.6604284 1.478442,-2.8018985 0.607862,-0.3858371 13.2938564,-0.3277353 14.0262694,0.06424 1.745462,0.9341433 -0.256791,5.0686996 -6.7356234,13.9087415 -3.369392,4.597365 -3.725114,5.353083 -3.186531,6.769669 0.163312,0.429541 2.008784,2.54279 4.10105,4.696109 3.9448284,4.05994 6.4400674,7.447783 6.4400674,8.743834 0,0.99936 -0.999024,1.948675 -2.309424,2.194509 -0.5858184,0.109897 -3.5209954,0.153929 -6.5226214,0.09785 -5.342775,-0.09982 -5.485501,-0.120518 -6.789594,-0.984435 -0.73265,-0.485357 -2.509117,-2.239395 -3.947699,-3.897866 -1.438586,-1.65847 -3.099632,-3.276067 -3.69122,-3.594659 -0.977523,-0.526429 -1.155126,-0.535065 -1.947526,-0.09469 -1.08129,0.600918 -1.958195,2.979145 -1.97791,5.36423 -0.01126,1.361255 -0.168493,1.849034 -0.799463,2.48 -0.736265,0.736269 -0.99177,0.783862 -4.08,0.760016 -1.812,-0.01399 -4.230544,-0.225891 -5.374544,-0.470886 z"
       style="stroke-width:0.32" />
  </g>
</svg>
